# xmcd
#
# Track frame offsets:
#	150
#	22125
#	37118
#	52763
#	68408
#	82951
#	96369
#	112119
#	127869
#	143177
#
# Disc length: 2122 seconds
#
# Revision: 1
# Processed by: cddbd v1.5.2PL0 Copyright (c) Steve Scherf et al.
# Submitted via: audiograbber 1.83.01
#
DISCID=8108480a
DTITLE=Ed Bruce - Greatest Hits
DYEAR=1985
DGENRE=Country
TTITLE0=The Last Cowboy Song
TTITLE1=Girls, Women and Ladies
TTITLE2=(When You Fall In Love) Everything's A Waltz
TTITLE3=You're The Best Brean This Old Heart Ever Had 
TTITLE4=Love's Found You And Me
TTITLE5=Ever, Never Lovin' You
TTITLE6=My First Taste Of Texas
TTITLE7=You're Not Leavin' Here Tonight
TTITLE8=If It Was Easy
TTITLE9=After All
EXTD=
EXTT0=
EXTT1=
EXTT2=
EXTT3=
EXTT4=
EXTT5=
EXTT6=
EXTT7=
EXTT8=
EXTT9=
PLAYORDER=
